<?xml version="1.0" encoding="utf-8"?>
<svg width="100px" height="24px" viewBox="0 0 100 24" version="1.1" xmlns:xlink="http://www.w3.org/1999/xlink" xmlns="http://www.w3.org/2000/svg">
  <desc>Created with Lunacy</desc>
  <g id="Choli's-Coffee" fill="#FFFFFF">
    <path d="M42.08 7.68Q41.78 7.52 41.65 7.29Q41.52 7.06 41.52 6.8Q41.52 6.4 41.7 5.93Q41.88 5.46 42.17 5.11Q42.46 4.76 42.78 4.76Q43.02 4.76 43.22 4.96Q43.42 5.16 43.44 5.5Q43 5.94 42.62 6.56Q42.24 7.18 42.08 7.68ZM30.44 19.8Q29.5 19.8 29.13 19.17Q28.76 18.54 28.76 17.68Q28.76 17.4597 28.7782 17.2221Q28.5869 17.4104 28.37 17.55Q27.64 18.02 26.94 18.02Q26.68 18.02 26.42 17.97Q26.16 17.92 25.94 17.84Q25.26 18.64 24.38 19.24Q23.5 19.84 22.6 19.84Q21.7 19.84 21.37 19.25Q21.04 18.66 21.04 17.96Q21.04 17.9128 21.0411 17.8655Q20.4287 18.6876 19.7 19.18Q18.96 19.68 18.1 19.68Q17.34 19.68 16.94 19.28Q16.54 18.88 16.54 18.28Q16.54 17.86 16.69 17.35Q16.84 16.84 16.98 16.32Q17.12 15.8 17.12 15.38Q17.12 14.9 16.91 14.72Q16.7 14.54 16.4 14.54Q15.9 14.54 15.5 14.93Q15.1 15.32 14.78 15.94Q14.46 16.56 14.18 17.25Q13.9 17.94 13.62 18.56C13.4333 18.9733 13.2367 19.31 13.03 19.57Q12.72 19.96 12.32 19.96Q11.88 19.96 11.69 19.28Q11.5 18.6 11.5 17.7Q11.5 16.78 11.81 15.48Q12.12 14.18 12.65 12.74Q13.18 11.3 13.83 9.92Q14.48 8.54 15.17 7.41Q15.86 6.28 16.49 5.6Q17.12 4.92 17.6 4.92Q18.02 4.92 18.24 5.38Q18.46 5.84 18.46 6.34Q18.46 6.88 18.21 7.67Q17.96 8.46 17.52 9.36Q17.08 10.26 16.49 11.13Q15.9 12 15.21 12.72Q14.52 13.44 13.78 13.88Q13.52 14.56 13.37 15.15Q13.22 15.74 13.16 16.26Q13.1 16.78 13.1 17.28Q13.1 17.38 13.11 17.49Q13.12 17.6 13.12 17.7Q13.2 17.58 13.38 17.08Q13.56 16.58 13.87 15.91Q14.18 15.24 14.64 14.59Q15.1 13.94 15.72 13.51Q16.34 13.08 17.14 13.08Q17.82 13.08 18.2 13.39Q18.58 13.7 18.74 14.15Q18.9 14.6 18.9 15.06Q18.9 15.7 18.69 16.26Q18.48 16.82 18.27 17.31Q18.06 17.8 18.06 18.24Q18.06 18.6 18.22 18.74Q18.38 18.88 18.6 18.88Q19.04 18.88 19.63 18.44Q20.22 18 20.81 17.27Q21.0277 17.0007 21.2222 16.7109Q21.2309 16.6804 21.24 16.65Q21.44 15.98 21.79 15.4Q22.14 14.82 22.57 14.47Q23 14.12 23.44 14.12Q23.58 14.12 23.77 14.17Q23.96 14.22 24.04 14.32Q23.8 14.62 23.55 15.06Q23.3 15.5 23.09 15.99Q22.88 16.48 22.76 16.98Q22.64 17.48 22.64 17.9Q22.64 18.3 22.79 18.56Q22.94 18.82 23.32 18.82Q23.7 18.82 24.23 18.39Q24.76 17.96 25.24 17.4Q24.6 16.82 24.32 16.13Q24.04 15.44 24.04 14.46Q24.04 14.04 24.25 13.5Q24.46 12.96 24.93 12.56Q25.4 12.16 26.2 12.16Q27.06 12.16 27.41 12.64Q27.76 13.12 27.76 13.78Q27.76 14.52 27.37 15.44Q26.98 16.36 26.44 17.18Q26.68 17.3 27 17.3Q27.3 17.3 27.72 17.16Q28.14 17.02 28.54 16.69Q28.7437 16.5219 28.906 16.2942Q28.9892 15.8595 29.12 15.38Q29.48 14.06 30.07 12.61Q30.66 11.16 31.37 9.77Q32.08 8.38 32.8 7.26Q33.52 6.14 34.13 5.47Q34.74 4.8 35.12 4.8Q35.38 4.8 35.56 5.07Q35.74 5.34 35.85 5.71Q35.96 6.08 35.96 6.4Q35.96 6.94 35.69 7.81Q35.42 8.68 34.93 9.72Q34.44 10.76 33.77 11.85Q33.1 12.94 32.29 13.92Q31.48 14.9 30.56 15.62Q30.48 16.12 30.41 16.61Q30.34 17.1 30.34 17.5Q30.34 18.22 30.58 18.55Q30.82 18.88 31.2 18.88Q31.7 18.88 32.23 18.41Q32.76 17.94 33.25 17.21Q33.5074 16.8265 33.7289 16.4292Q33.8679 15.9266 34.07 15.39Q34.36 14.62 34.74 13.94Q35.12 13.26 35.56 12.83Q36 12.4 36.44 12.4Q36.68 12.4 36.86 12.54Q37.04 12.68 37.04 12.98Q37.04 13.24 36.73 13.76Q36.42 14.28 36.01 14.96Q35.6 15.64 35.29 16.37Q34.98 17.1 34.98 17.76Q34.98 18.4 35.21 18.61Q35.44 18.82 35.88 18.82Q36.56 18.82 37.36 18.14Q38.16 17.46 39.02 15.76L39.32 16.08Q38.62 17.84 37.54 18.82Q36.46 19.8 35.22 19.8Q34.34 19.8 33.9 19.28Q33.46 18.76 33.46 18.02Q33.46 17.9343 33.4656 17.8401Q33.0784 18.3635 32.66 18.77Q31.6 19.8 30.44 19.8ZM72.66 24.8Q72.44 24.8 72.13 24.66Q71.82 24.52 71.59 24.11Q71.36 23.7 71.36 22.88Q71.36 22.02 71.65 20.63C71.8433 19.7033 72.11 18.6767 72.45 17.55Q72.466 17.4968 72.4823 17.4436Q72.4078 17.4999 72.33 17.55Q71.6 18.02 70.9 18.02Q70.64 18.02 70.38 17.97Q70.12 17.92 69.9 17.84Q69.22 18.64 68.34 19.24Q67.46 19.84 66.56 19.84Q65.66 19.84 65.33 19.25Q65 18.66 65 17.96Q65 17.32 65.2 16.65Q65.4 15.98 65.75 15.4Q66.1 14.82 66.53 14.47Q66.96 14.12 67.4 14.12Q67.54 14.12 67.73 14.17Q67.92 14.22 68 14.32Q67.76 14.62 67.51 15.06Q67.26 15.5 67.05 15.99Q66.84 16.48 66.72 16.98Q66.6 17.48 66.6 17.9Q66.6 18.3 66.75 18.56Q66.9 18.82 67.28 18.82Q67.66 18.82 68.19 18.39Q68.72 17.96 69.2 17.4Q68.56 16.82 68.28 16.13Q68 15.44 68 14.46Q68 14.04 68.21 13.5Q68.42 12.96 68.89 12.56Q69.36 12.16 70.16 12.16Q71.02 12.16 71.37 12.64Q71.72 13.12 71.72 13.78Q71.72 14.52 71.33 15.44Q70.94 16.36 70.4 17.18Q70.64 17.3 70.96 17.3Q71.26 17.3 71.68 17.16Q72.1 17.02 72.5 16.69Q72.6851 16.5373 72.8359 16.3354Q73.2056 15.2264 73.65 14.08Q74.34 12.3 75.13 10.65Q75.92 9 76.77 7.68Q77.62 6.36 78.46 5.58Q79.3 4.8 80.08 4.8Q80.6 4.8 80.76 5.11Q80.92 5.42 80.92 5.82Q80.92 6.68 80.45 7.7Q79.98 8.72 79.2 9.75Q78.42 10.78 77.45 11.7Q76.48 12.62 75.46 13.28L75.3 13.68L75.14 14.08Q75.36 14.16 75.49 14.36Q75.62 14.56 75.64 14.78Q75.8 15.64 75.96 16.31Q76.12 16.98 76.45 17.36Q76.78 17.74 77.4 17.74Q78.1 17.74 78.64 17.22Q79.0637 16.812 79.4997 16.1455Q79.8436 15.1284 80.25 14.08Q80.94 12.3 81.73 10.65Q82.52 9 83.37 7.68Q84.22 6.36 85.06 5.58Q85.9 4.8 86.68 4.8Q87.2 4.8 87.36 5.11Q87.52 5.42 87.52 5.82Q87.52 6.68 87.05 7.7Q86.58 8.72 85.8 9.75Q85.02 10.78 84.05 11.7Q83.08 12.62 82.06 13.28L81.9 13.68L81.74 14.08Q81.96 14.16 82.09 14.36Q82.22 14.56 82.24 14.78Q82.4 15.64 82.56 16.31Q82.72 16.98 83.05 17.36Q83.38 17.74 84 17.74Q84.7 17.74 85.24 17.22Q85.4427 17.0248 85.6482 16.7704Q85.7607 16.2945 85.99 15.79Q86.44 14.8 87.2 13.93Q87.96 13.06 88.88 12.52Q89.8 11.98 90.72 11.98Q91.24 11.98 91.71 12.25Q92.18 12.52 92.18 13.32Q92.18 14.08 91.74 14.74Q91.3 15.4 90.56 15.92Q89.82 16.44 88.93 16.77Q88.04 17.1 87.14 17.2Q87.12 17.28 87.11 17.37Q87.1 17.46 87.1 17.66Q87.1 17.76 87.13 18.01Q87.16 18.26 87.3 18.54Q87.44 18.82 87.76 19.02Q88.08 19.22 88.64 19.22Q89.48 19.22 90.33 18.75Q91.18 18.28 91.93 17.5Q92.1992 17.22 92.4363 16.9168Q92.5453 16.3724 92.81 15.79Q93.26 14.8 94.02 13.93Q94.78 13.06 95.7 12.52Q96.62 11.98 97.54 11.98Q98.06 11.98 98.53 12.25Q99 12.52 99 13.32Q99 14.08 98.56 14.74Q98.12 15.4 97.38 15.92Q96.64 16.44 95.75 16.77Q94.86 17.1 93.96 17.2Q93.94 17.28 93.93 17.37Q93.92 17.46 93.92 17.66Q93.92 17.76 93.95 18.01Q93.98 18.26 94.12 18.54Q94.26 18.82 94.58 19.02Q94.9 19.22 95.46 19.22Q96.3 19.22 97.15 18.75Q98 18.28 98.75 17.5Q99.5 16.72 100 15.76L100.4 16.08Q99.86 17.28 99.01 18.18Q98.16 19.08 97.13 19.58Q96.1 20.08 95.02 20.08Q93.74 20.08 93.05 19.39Q92.4671 18.8071 92.3766 17.9745Q92.2853 18.0791 92.19 18.18Q91.34 19.08 90.31 19.58Q89.28 20.08 88.2 20.08Q86.92 20.08 86.23 19.39Q85.5827 18.7427 85.5426 17.7873Q85.4426 17.8743 85.34 17.95Q84.54 18.54 83.9 18.54Q83.56 18.54 83.19 18.4Q82.82 18.26 82.48 18C82.4667 18.8267 82.37 19.6433 82.19 20.45Q81.92 21.66 81.46 22.64Q81 23.62 80.43 24.21Q79.86 24.8 79.26 24.8Q79.04 24.8 78.73 24.66Q78.42 24.52 78.19 24.11Q77.96 23.7 77.96 22.88Q77.96 22.02 78.25 20.63C78.4322 19.7566 78.6796 18.7944 78.9921 17.7434Q78.8681 17.8555 78.74 17.95Q77.94 18.54 77.3 18.54Q76.96 18.54 76.59 18.4Q76.22 18.26 75.88 18C75.8667 18.8267 75.77 19.6433 75.59 20.45Q75.32 21.66 74.86 22.64Q74.4 23.62 73.83 24.21Q73.26 24.8 72.66 24.8ZM5 20.94Q3.48 20.94 2.51 20.22Q1.54 19.5 1.09 18.36Q0.64 17.22 0.64 16Q0.64 14.42 1.12 12.83Q1.6 11.24 2.45 9.8Q3.3 8.36 4.38 7.24Q5.46 6.12 6.69 5.47Q7.92 4.82 9.14 4.82Q10.02 4.82 10.62 5.23Q11.22 5.64 11.22 6.64Q11.22 7.24 11.01 7.98Q10.8 8.72 10.45 9.41Q10.1 10.1 9.66 10.54Q9.22 10.98 8.76 10.98Q8.56 10.98 8.34 10.84Q8.12 10.7 7.94 10.36Q8.24 10.02 8.62 9.53Q9 9.04 9.34 8.49Q9.68 7.94 9.9 7.41Q10.12 6.88 10.12 6.48Q10.12 6.12 9.92 5.91Q9.72 5.7 9.22 5.7Q8.34 5.7 7.41 6.36Q6.48 7.02 5.62 8.13Q4.76 9.24 4.07 10.61Q3.38 11.98 2.98 13.43Q2.58 14.88 2.58 16.18Q2.58 17.14 2.87 18.01Q3.16 18.88 3.8 19.43Q4.44 19.98 5.48 19.98Q6.56 19.98 7.63 19.38Q8.7 18.78 9.59 17.8Q10.48 16.82 11.02 15.7L11.54 16.04Q10.84 17.38 9.86 18.49Q8.88 19.6 7.65 20.27Q6.42 20.94 5 20.94ZM58.84 20.94Q57.32 20.94 56.35 20.22Q55.38 19.5 54.93 18.36Q54.48 17.22 54.48 16Q54.48 14.42 54.96 12.83Q55.44 11.24 56.29 9.8Q57.14 8.36 58.22 7.24Q59.3 6.12 60.53 5.47Q61.76 4.82 62.98 4.82Q63.86 4.82 64.46 5.23Q65.06 5.64 65.06 6.64Q65.06 7.24 64.85 7.98Q64.64 8.72 64.29 9.41Q63.94 10.1 63.5 10.54Q63.06 10.98 62.6 10.98Q62.4 10.98 62.18 10.84Q61.96 10.7 61.78 10.36Q62.08 10.02 62.46 9.53Q62.84 9.04 63.18 8.49Q63.52 7.94 63.74 7.41Q63.96 6.88 63.96 6.48Q63.96 6.12 63.76 5.91Q63.56 5.7 63.06 5.7Q62.18 5.7 61.25 6.36Q60.32 7.02 59.46 8.13Q58.6 9.24 57.91 10.61Q57.22 11.98 56.82 13.43Q56.42 14.88 56.42 16.18Q56.42 17.14 56.71 18.01Q57 18.88 57.64 19.43Q58.28 19.98 59.32 19.98Q60.4 19.98 61.47 19.38Q62.54 18.78 63.43 17.8Q64.32 16.82 64.86 15.7L65.38 16.04Q64.68 17.38 63.7 18.49Q62.72 19.6 61.49 20.27Q60.26 20.94 58.84 20.94ZM76.04 11.88Q77.26 10.74 78.12 9.66Q78.98 8.58 79.43 7.75Q79.88 6.92 79.88 6.58Q79.88 6.42 79.72 6.42Q79.24 6.42 78.62 7.15Q78 7.88 77.34 9.12Q76.68 10.36 76.04 11.88ZM84.72 9.66Q83.86 10.74 82.64 11.88Q83.28 10.36 83.94 9.12Q84.6 7.88 85.22 7.15Q85.84 6.42 86.32 6.42Q86.48 6.42 86.48 6.58Q86.48 6.92 86.03 7.75Q85.58 8.58 84.72 9.66ZM30.92 14.38Q31.6 13.64 32.21 12.77Q32.82 11.9 33.33 11Q33.84 10.1 34.22 9.26Q34.6 8.42 34.81 7.75Q35.02 7.08 35.04 6.68L35.04 6.62Q34.88 6.62 34.53 7.07Q34.18 7.52 33.7 8.3Q33.22 9.08 32.71 10.08Q32.2 11.08 31.73 12.19Q31.26 13.3 30.92 14.38ZM14.2 12.6Q14.72 12.14 15.2 11.5Q15.68 10.86 16.09 10.17Q16.5 9.48 16.81 8.83Q17.12 8.18 17.3 7.66Q17.48 7.14 17.5 6.86L17.5 6.8Q17.38 6.8 16.99 7.29Q16.6 7.78 16.09 8.61Q15.58 9.44 15.07 10.48Q14.56 11.52 14.2 12.6ZM36.89 10.59Q37.2 10.78 37.58 10.78Q38.12 10.78 38.58 10.39Q39.04 10 39.04 9.58Q39.04 9.16 38.79 9Q38.54 8.84 38.18 8.84Q37.62 8.84 37.1 9.18Q36.58 9.52 36.58 10Q36.58 10.4 36.89 10.59ZM42.35 19.81Q42.96 20.22 43.96 20.22Q44.88 20.22 45.61 19.82Q46.34 19.42 46.66 18.6Q47.62 18.44 48.34 17.75Q49.06 17.06 49.44 15.92L49.2 15.74Q48.66 16.78 48.06 17.31Q47.46 17.84 46.84 18Q46.88 17.82 46.9 17.62Q46.92 17.42 46.92 17.18Q46.92 16.28 46.63 15.42Q46.34 14.56 46.05 13.79Q45.76 13.02 45.76 12.42Q45.76 12.14 45.81 11.98Q45.86 11.82 45.86 11.7Q45.84 11.54 45.73 11.42Q45.62 11.3 45.38 11.3Q45.02 11.3 44.75 11.63Q44.48 11.96 44.48 12.76L44.48 12.96Q44.1 13.8 43.57 14.49Q43.04 15.18 42.54 15.7Q42.44 15.8 42.23 15.88Q42.02 15.96 41.78 16.11Q41.54 16.26 41.38 16.58Q41.22 16.9 41.22 17.48Q41.22 18.14 41.48 18.77Q41.74 19.4 42.35 19.81ZM87.36 16.46Q87.88 16.4 88.52 16.1Q89.16 15.8 89.75 15.34Q90.34 14.88 90.72 14.33Q91.1 13.78 91.1 13.22Q91.1 13 91.02 12.92Q90.94 12.84 90.76 12.84Q90.3 12.84 89.8 13.17Q89.3 13.5 88.82 14.03Q88.34 14.56 87.96 15.2Q87.58 15.84 87.36 16.46ZM95.34 16.1Q94.7 16.4 94.18 16.46Q94.4 15.84 94.78 15.2Q95.16 14.56 95.64 14.03Q96.12 13.5 96.62 13.17Q97.12 12.84 97.58 12.84Q97.76 12.84 97.84 12.92Q97.92 13 97.92 13.22Q97.92 13.78 97.54 14.33Q97.16 14.88 96.57 15.34Q95.98 15.8 95.34 16.1ZM26.58 15.26Q26.24 16.06 25.76 16.76Q25.48 16.42 25.33 15.82Q25.18 15.22 25.18 14.8Q25.18 13.98 25.58 13.44Q25.98 12.9 26.36 12.9Q26.64 12.9 26.78 13.11Q26.92 13.32 26.92 13.78Q26.92 14.46 26.58 15.26ZM70.54 15.26Q70.2 16.06 69.72 16.76Q69.44 16.42 69.29 15.82Q69.14 15.22 69.14 14.8Q69.14 13.98 69.54 13.44Q69.94 12.9 70.32 12.9Q70.6 12.9 70.74 13.11Q70.88 13.32 70.88 13.78Q70.88 14.46 70.54 15.26ZM45.31 17.63Q45.3 17.82 45.26 17.96Q44.46 17.76 43.84 17.28Q43.22 16.8 42.9 16.26Q43.32 15.82 43.8 15.1Q44.28 14.38 44.64 13.76Q44.86 14.68 45.08 15.56Q45.3 16.44 45.32 17.34Q45.32 17.44 45.31 17.63ZM73.22 23.56Q73.44 23.56 73.69 23.18Q73.94 22.8 74.18 22.18Q74.42 21.56 74.62 20.81Q74.82 20.06 74.94 19.33Q75.06 18.6 75.06 18Q75.06 17.42 74.93 16.97Q74.8 16.52 74.48 15.96Q74.02 17.34 73.66 18.62Q73.3 19.9 73.1 20.95Q72.9 22 72.9 22.7Q72.9 23.56 73.22 23.56ZM80.29 23.18Q80.04 23.56 79.82 23.56Q79.5 23.56 79.5 22.7Q79.5 22 79.7 20.95Q79.9 19.9 80.26 18.62Q80.62 17.34 81.08 15.96Q81.4 16.52 81.53 16.97Q81.66 17.42 81.66 18Q81.66 18.6 81.54 19.33Q81.42 20.06 81.22 20.81Q81.02 21.56 80.78 22.18Q80.54 22.8 80.29 23.18ZM44.56 19.14Q44.22 19.34 43.82 19.34Q43.08 19.34 42.7 18.76Q42.32 18.18 42.32 17.52Q42.32 17.04 42.6 16.98Q42.96 17.46 43.62 17.92Q44.28 18.38 45.1 18.56Q44.9 18.94 44.56 19.14Z" />
  </g>
</svg>